<svg xmlns="http://www.w3.org/2000/svg" version="1.1" xmlns:xlink="http://www.w3.org/1999/xlink" xmlns:svgjs="http://svgjs.dev/svgjs" width="250" height="150" viewBox="0 0 1500 625"><g transform="matrix(1,0,0,1,-0.9090909090909918,-0.10111997164233344)"><svg viewBox="0 0 396 165" data-background-color="#ffffff" preserveAspectRatio="xMidYMid meet" height="625" width="1500" xmlns="http://www.w3.org/2000/svg" xmlns:xlink="http://www.w3.org/1999/xlink"><g id="tight-bounds" transform="matrix(1,0,0,1,0.2400000000000091,0.026695672513568525)"><svg viewBox="0 0 395.52 164.94660865497286" height="164.94660865497286" width="395.52"><g><svg viewBox="0 0 395.52 164.94660865497286" height="164.94660865497286" width="395.52"><g><svg viewBox="0 0 395.52 164.94660865497286" height="164.94660865497286" width="395.52"><g id="textblocktransform"><svg viewBox="0 0 395.52 164.94660865497286" height="164.94660865497286" width="395.52" id="textblock"><g><svg viewBox="0 0 395.52 76.10163415919874" height="76.10163415919874" width="395.52"><g transform="matrix(1,0,0,1,0,0)"><svg width="395.52" viewBox="0.15 -35.2 189.69 36.5" height="76.10163415919874" data-palette-color="#ff5f5f"><path d="M3.45-29.2L3.45-29.2 3.45-17.25Q5.7-18.7 8.7-19.45 11.7-20.2 14.65-20.2L14.65-20.2Q16.55-20.2 18.28-19.85 20-19.5 21.33-18.78 22.65-18.05 23.43-16.93 24.2-15.8 24.2-14.25L24.2-14.25Q24.2-14.2 24.2-14.13 24.2-14.05 24.2-13.98 24.2-13.9 24.2-13.8L24.2-13.8Q23.45-14.8 22.28-15.6 21.1-16.4 19.63-16.95 18.15-17.5 16.5-17.78 14.85-18.05 13.1-18.05L13.1-18.05Q10.4-18.05 8.3-17.53 6.2-17 4.67-16.05 3.15-15.1 2.15-13.85 1.15-12.6 0.65-11.2 0.15-9.8 0.15-8.35L0.15-8.35Q0.15-5.95 1.15-4.15 2.15-2.35 3.88-1.15 5.6 0.05 7.78 0.68 9.95 1.3 12.3 1.3L12.3 1.3Q14.25 1.3 16.23 0.93 18.2 0.55 20-0.35L20-0.35Q21.05-2.8 22.13-5.25 23.2-7.7 24.25-10.15L24.25-10.15Q23.65-8.7 22.5-8.35 21.35-8 20.45-8L20.45-8Q18.6-8 17.6-8.78 16.6-9.55 16.6-10.5L16.6-10.5Q16.6-11.45 17.57-12.2 18.55-12.95 20.45-12.95L20.45-12.95Q21.3-12.95 22.15-12.73 23-12.5 23.6-11.95 24.2-11.4 24.2-10.5L24.2-10.5Q24.2-7.9 24.2-5.28 24.2-2.65 24.2 0L24.2 0Q25.95 0 27.7 0 29.45 0 31.2 0 32.95 0 34.7 0 36.45 0 38.2 0 39.95 0 41.7 0L41.7 0Q41.7-4.85 41.7-9.7 41.7-14.55 41.7-19.4L41.7-19.4Q41.7-22.7 39.9-25.15 38.1-27.6 35.02-29.25 31.95-30.9 28.05-31.7 24.15-32.5 19.95-32.5L19.95-32.5Q15.65-32.5 11.38-31.68 7.1-30.85 3.45-29.2ZM83-31L98.65-31Q97.45-25.85 96.25-20.68 95.05-15.5 93.85-10.35 92.65-5.2 91.45 0L91.45 0 72.2 0 69.4-13.6Q69.35-13.8 69.32-13.93 69.3-14.05 69.25-14.1 69.2-14.15 69.15-14.13 69.1-14.1 69.07-13.98 69.05-13.85 69-13.6L69-13.6 66.4 0 48 0Q46.8-5.2 45.6-10.35 44.4-15.5 43.2-20.68 42-25.85 40.8-31L40.8-31 57.4-31Q58-26.1 58.62-21.43 59.25-16.75 59.85-11.85L59.85-11.85Q59.85-11.75 59.87-11.68 59.9-11.6 59.92-11.55 59.95-11.5 59.95-11.53 59.95-11.55 59.97-11.63 60-11.7 60-11.85L60-11.85 63.15-31 77.45-31 80.35-11.65Q80.35-11.55 80.37-11.48 80.4-11.4 80.4-11.4 80.4-11.4 80.42-11.4 80.45-11.4 80.47-11.48 80.5-11.55 80.5-11.65L80.5-11.65Q80.95-14.9 81.35-18.13 81.75-21.35 82.17-24.58 82.6-27.8 83-31L83-31ZM99.9-29.2L99.9-29.2 99.9-17.25Q102.15-18.7 105.15-19.45 108.15-20.2 111.1-20.2L111.1-20.2Q113-20.2 114.72-19.85 116.45-19.5 117.77-18.78 119.1-18.05 119.87-16.93 120.65-15.8 120.65-14.25L120.65-14.25Q120.65-14.2 120.65-14.13 120.65-14.05 120.65-13.98 120.65-13.9 120.65-13.8L120.65-13.8Q119.9-14.8 118.72-15.6 117.55-16.4 116.07-16.95 114.6-17.5 112.95-17.78 111.3-18.05 109.55-18.05L109.55-18.05Q106.85-18.05 104.75-17.53 102.65-17 101.12-16.05 99.6-15.1 98.6-13.85 97.6-12.6 97.1-11.2 96.6-9.8 96.6-8.35L96.6-8.35Q96.6-5.95 97.6-4.15 98.6-2.35 100.32-1.15 102.05 0.05 104.22 0.68 106.4 1.3 108.75 1.3L108.75 1.3Q110.7 1.3 112.67 0.93 114.65 0.55 116.45-0.35L116.45-0.35Q117.5-2.8 118.57-5.25 119.65-7.7 120.7-10.15L120.7-10.15Q120.1-8.7 118.95-8.35 117.8-8 116.9-8L116.9-8Q115.05-8 114.05-8.78 113.05-9.55 113.05-10.5L113.05-10.5Q113.05-11.45 114.02-12.2 115-12.95 116.9-12.95L116.9-12.95Q117.75-12.95 118.6-12.73 119.45-12.5 120.05-11.95 120.65-11.4 120.65-10.5L120.65-10.5Q120.65-7.9 120.65-5.28 120.65-2.65 120.65 0L120.65 0Q122.4 0 124.15 0 125.9 0 127.65 0 129.4 0 131.15 0 132.9 0 134.65 0 136.4 0 138.15 0L138.15 0Q138.15-4.85 138.15-9.7 138.15-14.55 138.15-19.4L138.15-19.4Q138.15-22.7 136.35-25.15 134.55-27.6 131.47-29.25 128.4-30.9 124.5-31.7 120.6-32.5 116.4-32.5L116.4-32.5Q112.1-32.5 107.82-31.68 103.55-30.85 99.9-29.2ZM157.39 0L140.09 0Q140.09-2.3 140.09-4.58 140.09-6.85 140.09-9.13 140.09-11.4 140.09-13.65L140.09-13.65Q140.09-14.6 140.09-15.55 140.09-16.5 140.09-17.45L140.09-17.45Q142.99-17.45 145.87-17.45 148.74-17.45 151.64-17.45 154.54-17.45 157.39-17.45L157.39-17.45Q157.39-14.55 157.39-11.65 157.39-8.75 157.39-5.83 157.39-2.9 157.39 0L157.39 0ZM140.09-17.45L140.09-17.45Q140.09-20.85 140.09-24.25 140.09-27.65 140.09-31L140.09-31 157.39-31Q157.39-29.35 157.39-27.7 157.39-26.05 157.39-24.4 157.39-22.75 157.39-21.1L157.39-21.1Q157.39-21.1 157.37-21.08 157.34-21.05 157.34-21.05L157.34-21.05Q153.04-20.15 148.72-19.25 144.39-18.35 140.09-17.45ZM189.84-17.4L176.64-17.4Q177.24-19.7 177.82-21.95 178.39-24.2 178.97-26.48 179.54-28.75 180.09-31L180.09-31 189.84-31 189.84-17.4ZM159.49-13.05L159.49-13.05Q159.49-17.35 159.49-22.1 159.49-26.85 159.49-31.1L159.49-31.1 176.59-35.2Q176.59-32.75 176.59-30.2 176.59-27.65 176.59-25.1L176.59-25.1Q176.59-23.25 176.59-21.4 176.59-19.55 176.59-17.75L176.59-17.75Q176.59-17.7 176.59-17.7 176.59-17.7 176.59-17.65L176.59-17.65Q176.59-16.7 177.02-16 177.44-15.3 178.22-14.83 178.99-14.35 180.04-14.1 181.09-13.85 182.39-13.85L182.39-13.85Q183.84-13.85 185.34-14.3 186.84-14.75 188.07-15.55 189.29-16.35 189.84-17.4L189.84-17.4 189.84-2.2Q187.69-0.5 184.29 0.33 180.89 1.15 177.49 1.15L177.49 1.15Q172.34 1.15 168.27-0.53 164.19-2.2 161.84-5.38 159.49-8.55 159.49-13.05Z" opacity="1" transform="matrix(1,0,0,1,0,0)" fill="#ff5f5f" class="wordmark-text-0" data-fill-palette-color="primary" id="text-0"></path></svg></g></svg></g><g transform="matrix(1,0,0,1,0,94.06740354496574)"><svg viewBox="0 0 395.52 70.8792051100071" height="70.8792051100071" width="395.52"><g transform="matrix(1,0,0,1,0,0)"><svg width="395.52" viewBox="0.6 -39.65 281.77 50.5" height="70.8792051100071" data-palette-color="#805252"><path d="M24.9-26.45L30.6-26.45 26.05 0 18.55 0 15.6-20.85 12.7 0 5.25 0 0.6-26.45 6.55-26.45 9.25-4.6 12.6-26.45 18.85-26.45 22.05-4.6 24.9-26.45ZM51-6.4Q51-5.1 51.35-4.48 51.7-3.85 52.5-3.45L52.5-3.45 51.25 0.65Q49.2 0.4 47.97-0.45 46.75-1.3 46.15-3.05L46.15-3.05Q43.85 0.75 39.7 0.75L39.7 0.75Q36.4 0.75 34.45-1.48 32.5-3.7 32.5-7.4L32.5-7.4Q32.5-11.7 35.17-13.95 37.85-16.2 42.95-16.2L42.95-16.2 45-16.2 45-18.05Q45-20.55 44.12-21.58 43.25-22.6 41.3-22.6L41.3-22.6Q38.95-22.6 35.45-21.3L35.45-21.3 34.05-25.3Q36.05-26.2 38.2-26.68 40.35-27.15 42.3-27.15L42.3-27.15Q51-27.15 51-18.35L51-18.35 51-6.4ZM41.35-3.7Q43.75-3.7 45-7L45-7 45-12.55 43.55-12.55Q41-12.55 39.82-11.4 38.65-10.25 38.65-7.85L38.65-7.85Q38.65-5.8 39.35-4.75 40.05-3.7 41.35-3.7L41.35-3.7ZM56.8-26.45L62.95-26.45 62.95 0 56.8 0 56.8-26.45ZM59.85-39.65Q61.5-39.65 62.52-38.6 63.55-37.55 63.55-35.9L63.55-35.9Q63.55-34.3 62.52-33.25 61.5-32.2 59.85-32.2L59.85-32.2Q58.2-32.2 57.17-33.25 56.15-34.3 56.15-35.9L56.15-35.9Q56.15-37.55 57.17-38.6 58.2-39.65 59.85-39.65L59.85-39.65ZM79.79-5L81.94-1.2Q79.49 0.75 76.19 0.75L76.19 0.75Q72.74 0.75 70.94-1.23 69.14-3.2 69.14-6.6L69.14-6.6 69.14-22 66.04-22 66.04-26.45 69.14-26.45 69.14-32.3 75.29-33.05 75.29-26.45 80.29-26.45 79.69-22 75.29-22 75.29-6.6Q75.29-4.2 77.34-4.2L77.34-4.2Q77.99-4.2 78.49-4.38 78.99-4.55 79.79-5L79.79-5ZM84.49-26.45L90.64-26.45 90.64 0 84.49 0 84.49-26.45ZM87.54-39.65Q89.19-39.65 90.22-38.6 91.24-37.55 91.24-35.9L91.24-35.9Q91.24-34.3 90.22-33.25 89.19-32.2 87.54-32.2L87.54-32.2Q85.89-32.2 84.87-33.25 83.84-34.3 83.84-35.9L83.84-35.9Q83.84-37.55 84.87-38.6 85.89-39.65 87.54-39.65L87.54-39.65ZM108.69-27.15Q111.54-27.15 113.19-25.1 114.84-23.05 114.84-19.6L114.84-19.6 114.84 0 108.69 0 108.69-18.9Q108.69-20.8 108.16-21.63 107.64-22.45 106.64-22.45L106.64-22.45Q104.54-22.45 102.49-18.5L102.49-18.5 102.49 0 96.34 0 96.34-26.45 101.69-26.45 102.14-23Q103.49-25.1 105.01-26.13 106.54-27.15 108.69-27.15L108.69-27.15ZM138.34-29.85L139.89-25.1Q138.84-24.6 137.36-24.4 135.89-24.2 133.69-24.2L133.69-24.2Q135.79-23.2 136.81-21.53 137.84-19.85 137.84-17.4L137.84-17.4Q137.84-13.4 135.39-10.95 132.94-8.5 128.74-8.5L128.74-8.5Q127.49-8.5 126.19-8.9L126.19-8.9Q125.29-8.15 125.29-6.85L125.29-6.85Q125.29-5.85 125.84-5.35 126.39-4.85 127.89-4.85L127.89-4.85 130.69-4.85Q134.69-4.85 137.04-2.78 139.39-0.7 139.39 2.5L139.39 2.5Q139.39 6.3 136.46 8.58 133.54 10.85 128.14 10.85L128.14 10.85Q122.44 10.85 120.16 8.75 117.89 6.65 117.89 2.6L117.89 2.6 123.34 2.6Q123.34 4.75 124.34 5.65 125.34 6.55 128.19 6.55L128.19 6.55Q130.94 6.55 132.09 5.6 133.24 4.65 133.24 2.9L133.24 2.9Q133.24 1.2 132.29 0.4 131.34-0.4 129.34-0.4L129.34-0.4 127.44-0.4Q123.64-0.4 121.89-1.75 120.14-3.1 120.14-5.45L120.14-5.45Q120.14-6.8 120.86-8.03 121.59-9.25 122.84-10.2L122.84-10.2Q120.79-11.5 119.84-13.3 118.89-15.1 118.89-17.7L118.89-17.7Q118.89-22.05 121.49-24.58 124.09-27.1 128.49-27.1L128.49-27.1Q131.74-27.1 133.86-27.8 135.99-28.5 138.34-29.85L138.34-29.85ZM128.49-23Q126.74-23 125.84-21.75 124.94-20.5 124.94-17.8L124.94-17.8Q124.94-15.25 125.84-13.88 126.74-12.5 128.44-12.5L128.44-12.5Q130.19-12.5 131.04-13.73 131.89-14.95 131.89-17.85L131.89-17.85Q131.89-20.55 131.06-21.78 130.24-23 128.49-23L128.49-23ZM162.18-33.05Q160.78-33.05 160.11-32.3 159.43-31.55 159.43-30L159.43-30 159.43-26.45 164.48-26.45 163.78-22 159.43-22 159.43 0 153.28 0 153.28-22 149.98-22 149.98-26.45 153.28-26.45 153.28-29.8Q153.28-33.4 155.38-35.55 157.48-37.7 161.38-37.7L161.38-37.7Q164.43-37.7 167.28-36.2L167.28-36.2 165.58-32.2Q163.83-33.05 162.18-33.05L162.18-33.05ZM176.68-27.15Q181.68-27.15 184.45-23.65 187.23-20.15 187.23-13.25L187.23-13.25Q187.23-6.65 184.43-2.95 181.63 0.75 176.68 0.75L176.68 0.75Q171.73 0.75 168.93-2.88 166.13-6.5 166.13-13.25L166.13-13.25Q166.13-19.95 168.93-23.55 171.73-27.15 176.68-27.15L176.68-27.15ZM176.68-22.5Q174.53-22.5 173.53-20.38 172.53-18.25 172.53-13.25L172.53-13.25Q172.53-8.2 173.53-6.08 174.53-3.95 176.68-3.95L176.68-3.95Q178.83-3.95 179.83-6.08 180.83-8.2 180.83-13.25L180.83-13.25Q180.83-18.3 179.83-20.4 178.83-22.5 176.68-22.5L176.68-22.5ZM203.43-27.1Q204.58-27.1 205.48-26.75L205.48-26.75 204.48-20.85Q203.48-21.1 202.63-21.1L202.63-21.1Q200.73-21.1 199.63-19.45 198.53-17.8 197.93-14.55L197.93-14.55 197.93 0 191.78 0 191.78-26.45 197.13-26.45 197.58-21.85Q199.43-27.1 203.43-27.1L203.43-27.1ZM236.82-26.45L229.82 0.1Q228.52 4.9 225.62 7.65 222.72 10.4 217.87 10.85L217.87 10.85 217.17 6.5Q220.32 5.85 221.9 4.42 223.47 3 224.37 0L224.37 0 222.07 0 215.37-26.45 221.62-26.45 226.02-4.1 230.72-26.45 236.82-26.45ZM249.12-27.15Q254.12-27.15 256.89-23.65 259.67-20.15 259.67-13.25L259.67-13.25Q259.67-6.65 256.87-2.95 254.07 0.75 249.12 0.75L249.12 0.75Q244.17 0.75 241.37-2.88 238.57-6.5 238.57-13.25L238.57-13.25Q238.57-19.95 241.37-23.55 244.17-27.15 249.12-27.15L249.12-27.15ZM249.12-22.5Q246.97-22.5 245.97-20.38 244.97-18.25 244.97-13.25L244.97-13.25Q244.97-8.2 245.97-6.08 246.97-3.95 249.12-3.95L249.12-3.95Q251.27-3.95 252.27-6.08 253.27-8.2 253.27-13.25L253.27-13.25Q253.27-18.3 252.27-20.4 251.27-22.5 249.12-22.5L249.12-22.5ZM282.37-26.45L282.37 0 277.02 0 276.72-3.35Q275.47-1.3 273.92-0.28 272.37 0.75 270.32 0.75L270.32 0.75Q267.42 0.75 265.74-1.3 264.07-3.35 264.07-6.65L264.07-6.65 264.07-26.45 270.22-26.45 270.22-7Q270.22-3.9 272.32-3.9L272.32-3.9Q273.52-3.9 274.47-4.83 275.42-5.75 276.22-7.45L276.22-7.45 276.22-26.45 282.37-26.45Z" opacity="1" transform="matrix(1,0,0,1,0,0)" fill="#805252" class="slogan-text-1" data-fill-palette-color="secondary" id="text-1"></path></svg></g></svg></g></svg></g></svg></g></svg></g><defs></defs></svg><rect width="395.52" height="164.94660865497286" fill="none" stroke="none" visibility="hidden"></rect></g></svg></g></svg>